<?xml version="1.0" encoding="UTF-8" standalone="no"?>
<!-- Created with Inkscape (http://www.inkscape.org/) -->

<svg
   xmlns:dc="http://purl.org/dc/elements/1.1/"
   xmlns:cc="http://creativecommons.org/ns#"
   xmlns:rdf="http://www.w3.org/1999/02/22-rdf-syntax-ns#"
   xmlns:svg="http://www.w3.org/2000/svg"
   xmlns="http://www.w3.org/2000/svg"
   xmlns:sodipodi="http://sodipodi.sourceforge.net/DTD/sodipodi-0.dtd"
   xmlns:inkscape="http://www.inkscape.org/namespaces/inkscape"
   width="744.09448819"
   height="1052.3622047"
   id="svg3048"
   version="1.1"
   inkscape:version="0.48.3.1 r9886"
   sodipodi:docname="Stability4.eps">
  <defs
     id="defs3050" />
  <sodipodi:namedview
     id="base"
     pagecolor="#ffffff"
     bordercolor="#666666"
     borderopacity="1.0"
     inkscape:pageopacity="0.0"
     inkscape:pageshadow="2"
     inkscape:zoom="2.1580195"
     inkscape:cx="320"
     inkscape:cy="524.32163"
     inkscape:document-units="px"
     inkscape:current-layer="layer1"
     showgrid="false"
     inkscape:window-width="1692"
     inkscape:window-height="944"
     inkscape:window-x="49"
     inkscape:window-y="24"
     inkscape:window-maximized="0" />
  <metadata
     id="metadata3053">
    <rdf:RDF>
      <cc:Work
         rdf:about="">
        <dc:format>image/svg+xml</dc:format>
        <dc:type
           rdf:resource="http://purl.org/dc/dcmitype/StillImage" />
        <dc:title></dc:title>
      </cc:Work>
    </rdf:RDF>
  </metadata>
  <g
     inkscape:label="Layer 1"
     inkscape:groupmode="layer"
     id="layer1">
    <path
       sodipodi:type="arc"
       style="stroke:none"
       id="path2985-7"
       sodipodi:cx="152"
       sodipodi:cy="151.36218"
       sodipodi:rx="10"
       sodipodi:ry="9"
       d="m 162,151.36218 a 10,9 0 1 1 -20,0 10,9 0 1 1 20,0 z"
       transform="matrix(1,0,0,1.0833333,147.62502,318.64741)" />
    <path
       sodipodi:type="arc"
       style="fill:none;stroke:#000000;stroke-width:1;stroke-miterlimit:4;stroke-opacity:1;stroke-dasharray:3, 1;stroke-dashoffset:0"
       id="path3755-7"
       sodipodi:cx="313.75"
       sodipodi:cy="266.61218"
       sodipodi:rx="91.75"
       sodipodi:ry="90.25"
       d="m 405.5,266.61218 a 91.75,90.25 0 1 1 -183.5,0 91.75,90.25 0 1 1 183.5,0 z"
       transform="matrix(0.77233799,0,0,0.77963452,56.053961,277.26305)" />
    <path
       transform="matrix(1.3116316,0,0,1.3195812,-113.14942,133.55669)"
       sodipodi:type="arc"
       style="fill:none;stroke:#000000;stroke-width:1;stroke-miterlimit:4;stroke-opacity:1;stroke-dasharray:3, 1;stroke-dashoffset:0"
       id="path3755-2-0"
       sodipodi:cx="313.75"
       sodipodi:cy="266.61218"
       sodipodi:rx="91.75"
       sodipodi:ry="90.25"
       d="m 405.5,266.61218 a 91.75,90.25 0 1 1 -183.5,0 91.75,90.25 0 1 1 183.5,0 z" />
    <path
       sodipodi:type="arc"
       style="stroke:none"
       id="path2985-3-8"
       sodipodi:cx="152"
       sodipodi:cy="151.36218"
       sodipodi:rx="10"
       sodipodi:ry="9"
       d="m 162,151.36218 a 10,9 0 1 1 -20,0 10,9 0 1 1 20,0 z"
       transform="matrix(1,0,0,1.0833333,190.87502,319.14739)" />
    <path
       sodipodi:type="arc"
       style="fill:none;stroke:#000000;stroke-width:1;stroke-miterlimit:4;stroke-opacity:1;stroke-dasharray:3, 1;stroke-dashoffset:0"
       id="path3755-8-5"
       sodipodi:cx="313.75"
       sodipodi:cy="266.61218"
       sodipodi:rx="91.75"
       sodipodi:ry="90.25"
       d="m 405.5,266.61218 a 91.75,90.25 0 1 1 -183.5,0 91.75,90.25 0 1 1 183.5,0 z"
       transform="matrix(0.77233799,0,0,0.77963452,99.303986,277.76304)" />
    <path
       transform="matrix(1.3116316,0,0,1.3195812,-69.899409,134.05668)"
       sodipodi:type="arc"
       style="fill:none;stroke:#000000;stroke-width:1;stroke-miterlimit:4;stroke-opacity:1;stroke-dasharray:3, 1;stroke-dashoffset:0"
       id="path3755-2-4-4"
       sodipodi:cx="313.75"
       sodipodi:cy="266.61218"
       sodipodi:rx="91.75"
       sodipodi:ry="90.25"
       d="m 405.5,266.61218 a 91.75,90.25 0 1 1 -183.5,0 91.75,90.25 0 1 1 183.5,0 z" />
    <path
       style="fill:none;stroke:#000000;stroke-width:1px;stroke-linecap:butt;stroke-linejoin:miter;stroke-opacity:1"
       d="m 300,482.44312 43,0"
       id="path3023"
       inkscape:connector-curvature="0" />
  </g>
</svg>
