<?xml version="1.0" encoding="UTF-8" standalone="no"?>
<!-- Created with Inkscape (http://www.inkscape.org/) -->

<svg
   xmlns:dc="http://purl.org/dc/elements/1.1/"
   xmlns:cc="http://creativecommons.org/ns#"
   xmlns:rdf="http://www.w3.org/1999/02/22-rdf-syntax-ns#"
   xmlns:svg="http://www.w3.org/2000/svg"
   xmlns="http://www.w3.org/2000/svg"
   xmlns:sodipodi="http://sodipodi.sourceforge.net/DTD/sodipodi-0.dtd"
   xmlns:inkscape="http://www.inkscape.org/namespaces/inkscape"
   width="744.09448819"
   height="1052.3622047"
   id="svg2"
   version="1.1"
   inkscape:version="0.48.4 r9939"
   sodipodi:docname="Stability1.svg">
  <defs
     id="defs4">
    <marker
       inkscape:stockid="Arrow1Lend"
       orient="auto"
       refY="0.0"
       refX="0.0"
       id="Arrow1Lend"
       style="overflow:visible;">
      <path
         id="path3957"
         d="M 0.0,0.0 L 5.0,-5.0 L -12.5,0.0 L 5.0,5.0 L 0.0,0.0 z "
         style="fill-rule:evenodd;stroke:#000000;stroke-width:1.0pt;"
         transform="scale(0.8) rotate(180) translate(12.5,0)" />
    </marker>
    <marker
       inkscape:stockid="Arrow1Lstart"
       orient="auto"
       refY="0.0"
       refX="0.0"
       id="Arrow1Lstart"
       style="overflow:visible">
      <path
         id="path3954"
         d="M 0.0,0.0 L 5.0,-5.0 L -12.5,0.0 L 5.0,5.0 L 0.0,0.0 z "
         style="fill-rule:evenodd;stroke:#000000;stroke-width:1.0pt"
         transform="scale(0.8) translate(12.5,0)" />
    </marker>
  </defs>
  <sodipodi:namedview
     id="base"
     pagecolor="#ffffff"
     bordercolor="#666666"
     borderopacity="1.0"
     inkscape:pageopacity="0.0"
     inkscape:pageshadow="2"
     inkscape:zoom="1"
     inkscape:cx="286.75405"
     inkscape:cy="722.21329"
     inkscape:document-units="px"
     inkscape:current-layer="layer1"
     showgrid="false"
     inkscape:window-width="1920"
     inkscape:window-height="1056"
     inkscape:window-x="1920"
     inkscape:window-y="24"
     inkscape:window-maximized="1" />
  <metadata
     id="metadata7">
    <rdf:RDF>
      <cc:Work
         rdf:about="">
        <dc:format>image/svg+xml</dc:format>
        <dc:type
           rdf:resource="http://purl.org/dc/dcmitype/StillImage" />
        <dc:title />
      </cc:Work>
    </rdf:RDF>
  </metadata>
  <g
     inkscape:label="Layer 1"
     inkscape:groupmode="layer"
     id="layer1">
    <path
       sodipodi:type="arc"
       style="stroke:none"
       id="path2985"
       sodipodi:cx="152"
       sodipodi:cy="151.36218"
       sodipodi:rx="10"
       sodipodi:ry="9"
       d="m 162,151.36218 a 10,9 0 1 1 -20,0 10,9 0 1 1 20,0 z"
       transform="matrix(1,0,0,1.0833333,131,144.13648)" />
    <path
       sodipodi:type="arc"
       style="fill:none;stroke:#000000;stroke-width:1;stroke-miterlimit:4;stroke-opacity:1;stroke-dasharray:3, 1;stroke-dashoffset:0"
       id="path3755"
       sodipodi:cx="313.75"
       sodipodi:cy="266.61218"
       sodipodi:rx="91.75"
       sodipodi:ry="90.25"
       d="m 405.5,266.61218 a 91.75,90.25 0 1 1 -183.5,0 91.75,90.25 0 1 1 183.5,0 z"
       transform="matrix(0.77233799,0,0,0.77963452,39.428953,102.75213)" />
    <path
       transform="matrix(1.3116316,0,0,1.3195812,-129.77442,-40.95423)"
       sodipodi:type="arc"
       style="fill:none;stroke:#000000;stroke-width:1;stroke-miterlimit:4;stroke-opacity:1;stroke-dasharray:3, 1;stroke-dashoffset:0"
       id="path3755-2"
       sodipodi:cx="313.75"
       sodipodi:cy="266.61218"
       sodipodi:rx="91.75"
       sodipodi:ry="90.25"
       d="m 405.5,266.61218 a 91.75,90.25 0 1 1 -183.5,0 91.75,90.25 0 1 1 183.5,0 z" />
    <text
       xml:space="preserve"
       style="font-size:40px;font-style:normal;font-weight:normal;line-height:125%;letter-spacing:0px;word-spacing:0px;fill:#000000;fill-opacity:1;stroke:none;font-family:Sans"
       x="308"
       y="167.36218"
       id="text3775"
       sodipodi:linespacing="125%"><tspan
         sodipodi:role="line"
         id="tspan3777"
         x="308"
         y="167.36218"
         style="font-size:24px">neighbour region</tspan></text>
    <path
       style="fill:none;stroke:#000000;stroke-width:1.09879601px;stroke-linecap:butt;stroke-linejoin:miter;stroke-opacity:1"
       d="m 367.9506,168.41158 -20.9012,43.90121"
       id="path3779"
       inkscape:connector-curvature="0" />
    <text
       xml:space="preserve"
       style="font-size:40px;font-style:normal;font-weight:normal;line-height:125%;letter-spacing:0px;word-spacing:0px;fill:#000000;fill-opacity:1;stroke:none;font-family:Sans"
       x="109.50977"
       y="141.98328"
       id="text3775-2"
       sodipodi:linespacing="125%"><tspan
         sodipodi:role="line"
         id="tspan3777-0"
         x="109.50977"
         y="141.98328"
         style="font-size:24px">repulsion region</tspan></text>
    <path
       sodipodi:type="arc"
       style="stroke:none"
       id="path2985-3"
       sodipodi:cx="152"
       sodipodi:cy="151.36218"
       sodipodi:rx="10"
       sodipodi:ry="9"
       d="m 162,151.36218 a 10,9 0 1 1 -20,0 10,9 0 1 1 20,0 z"
       transform="matrix(1,0,0,1.0833333,336.25001,144.63647)" />
    <path
       sodipodi:type="arc"
       style="fill:none;stroke:#000000;stroke-width:1;stroke-miterlimit:4;stroke-opacity:1;stroke-dasharray:3, 1;stroke-dashoffset:0"
       id="path3755-8"
       sodipodi:cx="313.75"
       sodipodi:cy="266.61218"
       sodipodi:rx="91.75"
       sodipodi:ry="90.25"
       d="m 405.5,266.61218 a 91.75,90.25 0 1 1 -183.5,0 91.75,90.25 0 1 1 183.5,0 z"
       transform="matrix(0.77233799,0,0,0.77963452,244.67897,103.25212)" />
    <path
       transform="matrix(1.3116316,0,0,1.3195812,75.475586,-40.45424)"
       sodipodi:type="arc"
       style="fill:none;stroke:#000000;stroke-width:1;stroke-miterlimit:4;stroke-opacity:1;stroke-dasharray:3, 1;stroke-dashoffset:0"
       id="path3755-2-4"
       sodipodi:cx="313.75"
       sodipodi:cy="266.61218"
       sodipodi:rx="91.75"
       sodipodi:ry="90.25"
       d="m 405.5,266.61218 a 91.75,90.25 0 1 1 -183.5,0 91.75,90.25 0 1 1 183.5,0 z" />
    <path
       style="fill:none;stroke:#000000;stroke-width:1px;stroke-linecap:butt;stroke-linejoin:miter;stroke-opacity:1"
       d="m 206,146.36218 49,99"
       id="path3831"
       inkscape:connector-curvature="0" />
    <path
       style="fill:none;stroke:#000000;stroke-width:0.88949084;stroke-linecap:butt;stroke-linejoin:miter;stroke-miterlimit:4;stroke-opacity:1;stroke-dasharray:none;marker-start:url(#Arrow1Lend);marker-mid:none;marker-end:url(#Arrow1Lstart)"
       d="M 465.96618,308.36857 305.03382,307.35579"
       id="path3948"
       inkscape:connector-curvature="0" />
  </g>
</svg>
