<?xml version="1.0" encoding="UTF-8" standalone="no"?>
<!-- Created with Inkscape (http://www.inkscape.org/) -->

<svg
   xmlns:dc="http://purl.org/dc/elements/1.1/"
   xmlns:cc="http://creativecommons.org/ns#"
   xmlns:rdf="http://www.w3.org/1999/02/22-rdf-syntax-ns#"
   xmlns:svg="http://www.w3.org/2000/svg"
   xmlns="http://www.w3.org/2000/svg"
   xmlns:sodipodi="http://sodipodi.sourceforge.net/DTD/sodipodi-0.dtd"
   xmlns:inkscape="http://www.inkscape.org/namespaces/inkscape"
   width="744.09448819"
   height="1052.3622047"
   id="svg2"
   version="1.1"
   inkscape:version="0.48.4 r9939"
   sodipodi:docname="New document 1">
  <defs
     id="defs4" />
  <sodipodi:namedview
     id="base"
     pagecolor="#ffffff"
     bordercolor="#666666"
     borderopacity="1.0"
     inkscape:pageopacity="0.0"
     inkscape:pageshadow="2"
     inkscape:zoom="0.98994949"
     inkscape:cx="359.84771"
     inkscape:cy="681.62441"
     inkscape:document-units="px"
     inkscape:current-layer="layer1"
     showgrid="false"
     inkscape:window-width="1511"
     inkscape:window-height="1002"
     inkscape:window-x="49"
     inkscape:window-y="24"
     inkscape:window-maximized="0" />
  <metadata
     id="metadata7">
    <rdf:RDF>
      <cc:Work
         rdf:about="">
        <dc:format>image/svg+xml</dc:format>
        <dc:type
           rdf:resource="http://purl.org/dc/dcmitype/StillImage" />
        <dc:title></dc:title>
      </cc:Work>
    </rdf:RDF>
  </metadata>
  <g
     inkscape:label="Layer 1"
     inkscape:groupmode="layer"
     id="layer1">
    <path
       sodipodi:type="arc"
       style="fill:#322020;fill-opacity:1"
       id="path2985"
       sodipodi:cx="143.6942"
       sodipodi:cy="397.27826"
       sodipodi:rx="18.940361"
       sodipodi:ry="17.172594"
       d="m 162.63456,397.27826 a 18.940361,17.172594 0 1 1 -37.88072,0 18.940361,17.172594 0 1 1 37.88072,0 z"
       transform="matrix(0.57333335,0,0,0.64705884,8.7003698,-196.10404)" />
    <path
       sodipodi:type="arc"
       style="fill:#322020;fill-opacity:1"
       id="path2985-3"
       sodipodi:cx="143.6942"
       sodipodi:cy="397.27826"
       sodipodi:rx="18.940361"
       sodipodi:ry="17.172594"
       d="m 162.63456,397.27826 a 18.940361,17.172594 0 1 1 -37.88072,0 18.940361,17.172594 0 1 1 37.88072,0 z"
       transform="matrix(0.57333335,0,0,0.64705884,35.803171,-148.18271)" />
    <path
       sodipodi:type="arc"
       style="fill:#322020;fill-opacity:1"
       id="path2985-3-9"
       sodipodi:cx="143.6942"
       sodipodi:cy="397.27826"
       sodipodi:rx="18.940361"
       sodipodi:ry="17.172594"
       d="m 162.63456,397.27826 a 18.940361,17.172594 0 1 1 -37.88072,0 18.940361,17.172594 0 1 1 37.88072,0 z"
       transform="matrix(0.57333335,0,0,0.64705884,65.077287,-196.58881)" />
    <path
       sodipodi:type="arc"
       style="fill:#322020;fill-opacity:1"
       id="path2985-3-9-1"
       sodipodi:cx="143.6942"
       sodipodi:cy="397.27826"
       sodipodi:rx="18.940361"
       sodipodi:ry="17.172594"
       d="m 162.63456,397.27826 a 18.940361,17.172594 0 1 1 -37.88072,0 18.940361,17.172594 0 1 1 37.88072,0 z"
       transform="matrix(0.57333335,0,0,0.64705884,-24.074994,-149.13194)" />
    <path
       sodipodi:type="arc"
       style="fill:#322020;fill-opacity:1"
       id="path2985-3-9-4"
       sodipodi:cx="143.6942"
       sodipodi:cy="397.27826"
       sodipodi:rx="18.940361"
       sodipodi:ry="17.172594"
       d="m 162.63456,397.27826 a 18.940361,17.172594 0 1 1 -37.88072,0 18.940361,17.172594 0 1 1 37.88072,0 z"
       transform="matrix(0.57333335,0,0,0.64705884,95.74736,-148.84767)" />
    <path
       sodipodi:type="arc"
       style="fill:#322020;fill-opacity:1"
       id="path2985-7"
       sodipodi:cx="143.6942"
       sodipodi:cy="397.27826"
       sodipodi:rx="18.940361"
       sodipodi:ry="17.172594"
       d="m 162.63456,397.27826 a 18.940361,17.172594 0 1 1 -37.88072,0 18.940361,17.172594 0 1 1 37.88072,0 z"
       transform="matrix(0.57333335,0,0,0.64705884,9.92439,-101.19413)" />
    <path
       sodipodi:type="arc"
       style="fill:#322020;fill-opacity:1"
       id="path2985-3-9-49"
       sodipodi:cx="143.6942"
       sodipodi:cy="397.27826"
       sodipodi:rx="18.940361"
       sodipodi:ry="17.172594"
       d="m 162.63456,397.27826 a 18.940361,17.172594 0 1 1 -37.88072,0 18.940361,17.172594 0 1 1 37.88072,0 z"
       transform="matrix(0.57333335,0,0,0.64705884,66.30131,-101.6789)" />
    <path
       style="fill:none;stroke:#000000;stroke-width:1px;stroke-linecap:butt;stroke-linejoin:miter;stroke-opacity:1"
       d="M 118.18785,108.87971 90.913729,59.382231"
       id="path3089"
       inkscape:connector-curvature="0" />
    <path
       style="fill:none;stroke:#000000;stroke-width:1px;stroke-linecap:butt;stroke-linejoin:miter;stroke-opacity:1"
       d="M 118.18785,108.87971 147.48227,59.382231"
       id="path3091"
       inkscape:connector-curvature="0" />
    <path
       style="fill:none;stroke:#000000;stroke-width:1px;stroke-linecap:butt;stroke-linejoin:miter;stroke-opacity:1"
       d="M 118.18785,108.87971 92.934034,155.34672"
       id="path3093"
       inkscape:connector-curvature="0" />
    <path
       style="fill:none;stroke:#000000;stroke-width:1px;stroke-linecap:butt;stroke-linejoin:miter;stroke-opacity:1"
       d="M 118.18785,107.86955 58.588848,106.8594"
       id="path3095"
       inkscape:connector-curvature="0" />
    <path
       style="fill:none;stroke:#000000;stroke-width:1px;stroke-linecap:butt;stroke-linejoin:miter;stroke-opacity:1"
       d="m 118.18785,107.86955 58.58885,0"
       id="path3097"
       inkscape:connector-curvature="0" />
    <path
       style="fill:none;stroke:#000000;stroke-width:1px;stroke-linecap:butt;stroke-linejoin:miter;stroke-opacity:1"
       d="m 118.18785,107.86955 29.29442,46.46702"
       id="path3099"
       inkscape:connector-curvature="0" />
    <path
       style="fill:none;stroke:#000000;stroke-width:1px;stroke-linecap:butt;stroke-linejoin:miter;stroke-opacity:1"
       d="M 148.49242,58.372078 178.797,108.87971"
       id="path3101"
       inkscape:connector-curvature="0" />
    <path
       style="fill:none;stroke:#000000;stroke-width:1px;stroke-linecap:butt;stroke-linejoin:miter;stroke-opacity:1"
       d="m 178.797,108.87971 -30.30458,47.47716"
       id="path3103"
       inkscape:connector-curvature="0" />
    <path
       style="fill:none;stroke:#000000;stroke-width:1px;stroke-linecap:butt;stroke-linejoin:miter;stroke-opacity:1"
       d="M 148.49242,156.35687 92.934034,155.34672"
       id="path3105"
       inkscape:connector-curvature="0" />
    <path
       style="fill:none;stroke:#000000;stroke-width:1px;stroke-linecap:butt;stroke-linejoin:miter;stroke-opacity:1"
       d="M 92.934034,155.34672 58.588848,106.8594"
       id="path3107"
       inkscape:connector-curvature="0" />
    <path
       style="fill:none;stroke:#000000;stroke-width:1px;stroke-linecap:butt;stroke-linejoin:miter;stroke-opacity:1"
       d="M 57.578695,107.86955 91.923882,59.382231"
       id="path3109"
       inkscape:connector-curvature="0" />
    <path
       style="fill:none;stroke:#000000;stroke-width:1px;stroke-linecap:butt;stroke-linejoin:miter;stroke-opacity:1"
       d="M 91.923882,59.382231 146.47212,58.372078"
       id="path3111"
       inkscape:connector-curvature="0" />
    <path
       sodipodi:type="arc"
       style="fill:#322020;fill-opacity:1"
       id="path2985-8"
       sodipodi:cx="143.6942"
       sodipodi:cy="397.27826"
       sodipodi:rx="18.940361"
       sodipodi:ry="17.172594"
       d="m 162.63456,397.27826 a 18.940361,17.172594 0 1 1 -37.88072,0 18.940361,17.172594 0 1 1 37.88072,0 z"
       transform="matrix(0.57333335,0,0,0.64705884,182.41359,-196.40542)" />
    <path
       sodipodi:type="arc"
       style="fill:#322020;fill-opacity:1"
       id="path2985-3-1"
       sodipodi:cx="143.6942"
       sodipodi:cy="397.27826"
       sodipodi:rx="18.940361"
       sodipodi:ry="17.172594"
       d="m 162.63456,397.27826 a 18.940361,17.172594 0 1 1 -37.88072,0 18.940361,17.172594 0 1 1 37.88072,0 z"
       transform="matrix(0.57333335,0,0,0.64705884,209.51639,-148.48409)" />
    <path
       sodipodi:type="arc"
       style="fill:#322020;fill-opacity:1"
       id="path2985-3-9-3"
       sodipodi:cx="143.6942"
       sodipodi:cy="397.27826"
       sodipodi:rx="18.940361"
       sodipodi:ry="17.172594"
       d="m 162.63456,397.27826 a 18.940361,17.172594 0 1 1 -37.88072,0 18.940361,17.172594 0 1 1 37.88072,0 z"
       transform="matrix(0.57333335,0,0,0.64705884,238.79051,-196.89019)" />
    <path
       sodipodi:type="arc"
       style="fill:#322020;fill-opacity:1"
       id="path2985-3-9-1-9"
       sodipodi:cx="143.6942"
       sodipodi:cy="397.27826"
       sodipodi:rx="18.940361"
       sodipodi:ry="17.172594"
       d="m 162.63456,397.27826 a 18.940361,17.172594 0 1 1 -37.88072,0 18.940361,17.172594 0 1 1 37.88072,0 z"
       transform="matrix(0.57333335,0,0,0.64705884,149.63823,-149.43332)" />
    <path
       sodipodi:type="arc"
       style="fill:#322020;fill-opacity:1"
       id="path2985-3-9-4-5"
       sodipodi:cx="143.6942"
       sodipodi:cy="397.27826"
       sodipodi:rx="18.940361"
       sodipodi:ry="17.172594"
       d="m 162.63456,397.27826 a 18.940361,17.172594 0 1 1 -37.88072,0 18.940361,17.172594 0 1 1 37.88072,0 z"
       transform="matrix(0.57333335,0,0,0.64705884,269.46058,-149.14905)" />
    <path
       sodipodi:type="arc"
       style="fill:#322020;fill-opacity:1"
       id="path2985-3-9-49-1"
       sodipodi:cx="143.6942"
       sodipodi:cy="397.27826"
       sodipodi:rx="18.940361"
       sodipodi:ry="17.172594"
       d="m 162.63456,397.27826 a 18.940361,17.172594 0 1 1 -37.88072,0 18.940361,17.172594 0 1 1 37.88072,0 z"
       transform="matrix(0.57333335,0,0,0.64705884,240.01453,-101.98029)" />
    <path
       style="fill:none;stroke:#000000;stroke-width:1px;stroke-linecap:butt;stroke-linejoin:miter;stroke-opacity:1"
       d="M 291.90107,108.57833 264.62695,59.080843"
       id="path3089-1"
       inkscape:connector-curvature="0" />
    <path
       style="fill:none;stroke:#000000;stroke-width:1px;stroke-linecap:butt;stroke-linejoin:miter;stroke-opacity:1"
       d="M 291.90107,108.57833 321.19549,59.080843"
       id="path3091-8"
       inkscape:connector-curvature="0" />
    <path
       style="fill:none;stroke:#000000;stroke-width:1px;stroke-linecap:butt;stroke-linejoin:miter;stroke-opacity:1"
       d="m 291.90107,107.56817 -59.599,-1.01015"
       id="path3095-9"
       inkscape:connector-curvature="0" />
    <path
       style="fill:none;stroke:#000000;stroke-width:1px;stroke-linecap:butt;stroke-linejoin:miter;stroke-opacity:1"
       d="m 291.90107,107.56817 58.58885,0"
       id="path3097-9"
       inkscape:connector-curvature="0" />
    <path
       style="fill:none;stroke:#000000;stroke-width:1px;stroke-linecap:butt;stroke-linejoin:miter;stroke-opacity:1"
       d="m 291.90107,107.56817 29.29442,46.46702"
       id="path3099-1"
       inkscape:connector-curvature="0" />
    <path
       style="fill:none;stroke:#000000;stroke-width:1px;stroke-linecap:butt;stroke-linejoin:miter;stroke-opacity:1"
       d="m 322.20564,58.07069 30.30458,50.50764"
       id="path3101-0"
       inkscape:connector-curvature="0" />
    <path
       style="fill:none;stroke:#000000;stroke-width:1px;stroke-linecap:butt;stroke-linejoin:miter;stroke-opacity:1"
       d="m 352.51022,108.57833 -30.30458,47.47716"
       id="path3103-0"
       inkscape:connector-curvature="0" />
    <path
       style="fill:none;stroke:#000000;stroke-width:1px;stroke-linecap:butt;stroke-linejoin:miter;stroke-opacity:1"
       d="M 231.29192,107.56817 265.6371,59.080843"
       id="path3109-7"
       inkscape:connector-curvature="0" />
    <path
       style="fill:none;stroke:#000000;stroke-width:1px;stroke-linecap:butt;stroke-linejoin:miter;stroke-opacity:1"
       d="M 265.6371,59.080843 320.18534,58.07069"
       id="path3111-8"
       inkscape:connector-curvature="0" />
    <path
       sodipodi:type="arc"
       style="fill:#322020;fill-opacity:1"
       id="path2985-72"
       sodipodi:cx="143.6942"
       sodipodi:cy="397.27826"
       sodipodi:rx="18.940361"
       sodipodi:ry="17.172594"
       d="m 162.63456,397.27826 a 18.940361,17.172594 0 1 1 -37.88072,0 18.940361,17.172594 0 1 1 37.88072,0 z"
       transform="matrix(0.57333335,0,0,0.64705884,353.12938,-196.40543)" />
    <path
       sodipodi:type="arc"
       style="fill:#322020;fill-opacity:1"
       id="path2985-3-2"
       sodipodi:cx="143.6942"
       sodipodi:cy="397.27826"
       sodipodi:rx="18.940361"
       sodipodi:ry="17.172594"
       d="m 162.63456,397.27826 a 18.940361,17.172594 0 1 1 -37.88072,0 18.940361,17.172594 0 1 1 37.88072,0 z"
       transform="matrix(0.57333335,0,0,0.64705884,380.23218,-148.48409)" />
    <path
       sodipodi:type="arc"
       style="fill:#322020;fill-opacity:1"
       id="path2985-3-9-0"
       sodipodi:cx="143.6942"
       sodipodi:cy="397.27826"
       sodipodi:rx="18.940361"
       sodipodi:ry="17.172594"
       d="m 162.63456,397.27826 a 18.940361,17.172594 0 1 1 -37.88072,0 18.940361,17.172594 0 1 1 37.88072,0 z"
       transform="matrix(0.57333335,0,0,0.64705884,409.5063,-196.8902)" />
    <path
       sodipodi:type="arc"
       style="fill:#322020;fill-opacity:1"
       id="path2985-3-9-1-0"
       sodipodi:cx="143.6942"
       sodipodi:cy="397.27826"
       sodipodi:rx="18.940361"
       sodipodi:ry="17.172594"
       d="m 162.63456,397.27826 a 18.940361,17.172594 0 1 1 -37.88072,0 18.940361,17.172594 0 1 1 37.88072,0 z"
       transform="matrix(0.57333335,0,0,0.64705884,320.35401,-149.43332)" />
    <path
       sodipodi:type="arc"
       style="fill:#322020;fill-opacity:1"
       id="path2985-3-9-4-7"
       sodipodi:cx="143.6942"
       sodipodi:cy="397.27826"
       sodipodi:rx="18.940361"
       sodipodi:ry="17.172594"
       d="m 162.63456,397.27826 a 18.940361,17.172594 0 1 1 -37.88072,0 18.940361,17.172594 0 1 1 37.88072,0 z"
       transform="matrix(0.57333335,0,0,0.64705884,440.17637,-149.14905)" />
    <path
       style="fill:none;stroke:#000000;stroke-width:1px;stroke-linecap:butt;stroke-linejoin:miter;stroke-opacity:1"
       d="M 462.61686,108.57833 435.34274,59.080846"
       id="path3089-16"
       inkscape:connector-curvature="0" />
    <path
       style="fill:none;stroke:#000000;stroke-width:1px;stroke-linecap:butt;stroke-linejoin:miter;stroke-opacity:1"
       d="M 462.61686,108.57833 491.91128,59.080846"
       id="path3091-0"
       inkscape:connector-curvature="0" />
    <path
       style="fill:none;stroke:#000000;stroke-width:1px;stroke-linecap:butt;stroke-linejoin:miter;stroke-opacity:1"
       d="m 462.61686,107.56817 -59.599,-1.01015"
       id="path3095-6"
       inkscape:connector-curvature="0" />
    <path
       style="fill:none;stroke:#000000;stroke-width:1px;stroke-linecap:butt;stroke-linejoin:miter;stroke-opacity:1"
       d="m 462.61686,107.56817 58.58885,0"
       id="path3097-3"
       inkscape:connector-curvature="0" />
    <path
       style="fill:none;stroke:#000000;stroke-width:1px;stroke-linecap:butt;stroke-linejoin:miter;stroke-opacity:1"
       d="m 492.92143,58.070686 30.30458,50.507644"
       id="path3101-5"
       inkscape:connector-curvature="0" />
    <path
       style="fill:none;stroke:#000000;stroke-width:1px;stroke-linecap:butt;stroke-linejoin:miter;stroke-opacity:1"
       d="M 402.0077,107.56817 436.35289,59.080846"
       id="path3109-1"
       inkscape:connector-curvature="0" />
    <path
       style="fill:none;stroke:#000000;stroke-width:1px;stroke-linecap:butt;stroke-linejoin:miter;stroke-opacity:1"
       d="m 436.35289,59.080846 54.54824,-1.01016"
       id="path3111-5"
       inkscape:connector-curvature="0" />
    <path
       sodipodi:type="arc"
       style="fill:#322020;fill-opacity:1"
       id="path2985-30"
       sodipodi:cx="143.6942"
       sodipodi:cy="397.27826"
       sodipodi:rx="18.940361"
       sodipodi:ry="17.172594"
       d="m 162.63456,397.27826 a 18.940361,17.172594 0 1 1 -37.88072,0 18.940361,17.172594 0 1 1 37.88072,0 z"
       transform="matrix(0.57333335,0,0,0.64705884,9.677511,-36.801324)" />
    <path
       sodipodi:type="arc"
       style="fill:#322020;fill-opacity:1"
       id="path2985-3-6"
       sodipodi:cx="143.6942"
       sodipodi:cy="397.27826"
       sodipodi:rx="18.940361"
       sodipodi:ry="17.172594"
       d="m 162.63456,397.27826 a 18.940361,17.172594 0 1 1 -37.88072,0 18.940361,17.172594 0 1 1 37.88072,0 z"
       transform="matrix(0.57333335,0,0,0.64705884,36.780312,11.120006)" />
    <path
       sodipodi:type="arc"
       style="fill:#322020;fill-opacity:1"
       id="path2985-3-9-6"
       sodipodi:cx="143.6942"
       sodipodi:cy="397.27826"
       sodipodi:rx="18.940361"
       sodipodi:ry="17.172594"
       d="m 162.63456,397.27826 a 18.940361,17.172594 0 1 1 -37.88072,0 18.940361,17.172594 0 1 1 37.88072,0 z"
       transform="matrix(0.57333335,0,0,0.64705884,66.054428,-37.286094)" />
    <path
       sodipodi:type="arc"
       style="fill:#322020;fill-opacity:1"
       id="path2985-3-9-1-06"
       sodipodi:cx="143.6942"
       sodipodi:cy="397.27826"
       sodipodi:rx="18.940361"
       sodipodi:ry="17.172594"
       d="m 162.63456,397.27826 a 18.940361,17.172594 0 1 1 -37.88072,0 18.940361,17.172594 0 1 1 37.88072,0 z"
       transform="matrix(0.57333335,0,0,0.64705884,-23.097853,10.170776)" />
    <path
       style="fill:none;stroke:#000000;stroke-width:1px;stroke-linecap:butt;stroke-linejoin:miter;stroke-opacity:1"
       d="M 119.165,268.18243 91.890866,218.68495"
       id="path3089-0"
       inkscape:connector-curvature="0" />
    <path
       style="fill:none;stroke:#000000;stroke-width:1px;stroke-linecap:butt;stroke-linejoin:miter;stroke-opacity:1"
       d="m 119.165,268.18243 29.29442,-49.49748"
       id="path3091-4"
       inkscape:connector-curvature="0" />
    <path
       style="fill:none;stroke:#000000;stroke-width:1px;stroke-linecap:butt;stroke-linejoin:miter;stroke-opacity:1"
       d="M 119.165,267.17227 59.565989,266.16212"
       id="path3095-2"
       inkscape:connector-curvature="0" />
    <path
       style="fill:none;stroke:#000000;stroke-width:1px;stroke-linecap:butt;stroke-linejoin:miter;stroke-opacity:1"
       d="m 58.555836,267.17227 34.34519,-48.48732"
       id="path3109-15"
       inkscape:connector-curvature="0" />
    <path
       style="fill:none;stroke:#000000;stroke-width:1px;stroke-linecap:butt;stroke-linejoin:miter;stroke-opacity:1"
       d="M 92.901026,218.68495 147.44927,217.6748"
       id="path3111-6"
       inkscape:connector-curvature="0" />
    <path
       sodipodi:type="arc"
       style="fill:#322020;fill-opacity:1"
       id="path2985-30-7"
       sodipodi:cx="143.6942"
       sodipodi:cy="397.27826"
       sodipodi:rx="18.940361"
       sodipodi:ry="17.172594"
       d="m 162.63456,397.27826 a 18.940361,17.172594 0 1 1 -37.88072,0 18.940361,17.172594 0 1 1 37.88072,0 z"
       transform="matrix(0.57333335,0,0,0.64705884,190.67756,-39.571001)" />
    <path
       sodipodi:type="arc"
       style="fill:#322020;fill-opacity:1"
       id="path2985-3-6-8"
       sodipodi:cx="143.6942"
       sodipodi:cy="397.27826"
       sodipodi:rx="18.940361"
       sodipodi:ry="17.172594"
       d="m 162.63456,397.27826 a 18.940361,17.172594 0 1 1 -37.88072,0 18.940361,17.172594 0 1 1 37.88072,0 z"
       transform="matrix(0.57333335,0,0,0.64705884,217.78036,8.3503275)" />
    <path
       sodipodi:type="arc"
       style="fill:#322020;fill-opacity:1"
       id="path2985-3-9-6-4"
       sodipodi:cx="143.6942"
       sodipodi:cy="397.27826"
       sodipodi:rx="18.940361"
       sodipodi:ry="17.172594"
       d="m 162.63456,397.27826 a 18.940361,17.172594 0 1 1 -37.88072,0 18.940361,17.172594 0 1 1 37.88072,0 z"
       transform="matrix(0.57333335,0,0,0.64705884,247.05448,-40.055771)" />
    <path
       style="fill:none;stroke:#000000;stroke-width:1px;stroke-linecap:butt;stroke-linejoin:miter;stroke-opacity:1"
       d="M 300.16505,265.41275 272.89092,215.91527"
       id="path3089-0-8"
       inkscape:connector-curvature="0" />
    <path
       style="fill:none;stroke:#000000;stroke-width:1px;stroke-linecap:butt;stroke-linejoin:miter;stroke-opacity:1"
       d="m 300.16505,265.41275 29.29442,-49.49748"
       id="path3091-4-1"
       inkscape:connector-curvature="0" />
    <path
       style="fill:none;stroke:#000000;stroke-width:1px;stroke-linecap:butt;stroke-linejoin:miter;stroke-opacity:1"
       d="m 273.90108,215.91527 54.54824,-1.01015"
       id="path3111-6-6"
       inkscape:connector-curvature="0" />
    <path
       sodipodi:type="arc"
       style="fill:#322020;fill-opacity:1"
       id="path2985-3-6-8-9"
       sodipodi:cx="143.6942"
       sodipodi:cy="397.27826"
       sodipodi:rx="18.940361"
       sodipodi:ry="17.172594"
       d="m 162.63456,397.27826 a 18.940361,17.172594 0 1 1 -37.88072,0 18.940361,17.172594 0 1 1 37.88072,0 z"
       transform="matrix(0.57333335,0,0,0.64705884,381.19983,7.3401744)" />
    <path
       sodipodi:type="arc"
       style="fill:#322020;fill-opacity:1"
       id="path2985-3-9-6-4-2"
       sodipodi:cx="143.6942"
       sodipodi:cy="397.27826"
       sodipodi:rx="18.940361"
       sodipodi:ry="17.172594"
       d="m 162.63456,397.27826 a 18.940361,17.172594 0 1 1 -37.88072,0 18.940361,17.172594 0 1 1 37.88072,0 z"
       transform="matrix(0.57333335,0,0,0.64705884,410.47395,-41.065926)" />
    <path
       style="fill:none;stroke:#000000;stroke-width:1px;stroke-linecap:butt;stroke-linejoin:miter;stroke-opacity:1"
       d="m 463.58452,264.40259 29.29442,-49.49748"
       id="path3091-4-1-1"
       inkscape:connector-curvature="0" />
  </g>
</svg>
