<?xml version="1.0" encoding="UTF-8" standalone="no"?>
<!-- Created with Inkscape (http://www.inkscape.org/) -->

<svg
   xmlns:dc="http://purl.org/dc/elements/1.1/"
   xmlns:cc="http://creativecommons.org/ns#"
   xmlns:rdf="http://www.w3.org/1999/02/22-rdf-syntax-ns#"
   xmlns:svg="http://www.w3.org/2000/svg"
   xmlns="http://www.w3.org/2000/svg"
   xmlns:sodipodi="http://sodipodi.sourceforge.net/DTD/sodipodi-0.dtd"
   xmlns:inkscape="http://www.inkscape.org/namespaces/inkscape"
   width="744.09448819"
   height="1052.3622047"
   id="svg3045"
   version="1.1"
   inkscape:version="0.48.3.1 r9886"
   sodipodi:docname="New document 2">
  <defs
     id="defs3047">
    <marker
       inkscape:stockid="Arrow1Lend"
       orient="auto"
       refY="0"
       refX="0"
       id="Arrow1Lend"
       style="overflow:visible">
      <path
         inkscape:connector-curvature="0"
         id="path3957"
         d="M 0,0 5,-5 -12.5,0 5,5 0,0 z"
         style="fill-rule:evenodd;stroke:#000000;stroke-width:1pt"
         transform="matrix(-0.8,0,0,-0.8,-10,0)" />
    </marker>
    <marker
       inkscape:stockid="Arrow1Lstart"
       orient="auto"
       refY="0"
       refX="0"
       id="Arrow1Lstart"
       style="overflow:visible">
      <path
         inkscape:connector-curvature="0"
         id="path3954"
         d="M 0,0 5,-5 -12.5,0 5,5 0,0 z"
         style="fill-rule:evenodd;stroke:#000000;stroke-width:1pt"
         transform="matrix(0.8,0,0,0.8,10,0)" />
    </marker>
  </defs>
  <sodipodi:namedview
     id="base"
     pagecolor="#ffffff"
     bordercolor="#666666"
     borderopacity="1.0"
     inkscape:pageopacity="0.0"
     inkscape:pageshadow="2"
     inkscape:zoom="0.98994949"
     inkscape:cx="375"
     inkscape:cy="681.62441"
     inkscape:document-units="px"
     inkscape:current-layer="layer1"
     showgrid="false"
     inkscape:window-width="867"
     inkscape:window-height="794"
     inkscape:window-x="49"
     inkscape:window-y="24"
     inkscape:window-maximized="0" />
  <metadata
     id="metadata3050">
    <rdf:RDF>
      <cc:Work
         rdf:about="">
        <dc:format>image/svg+xml</dc:format>
        <dc:type
           rdf:resource="http://purl.org/dc/dcmitype/StillImage" />
        <dc:title></dc:title>
      </cc:Work>
    </rdf:RDF>
  </metadata>
  <g
     inkscape:label="Layer 1"
     inkscape:groupmode="layer"
     id="layer1">
    <path
       sodipodi:type="arc"
       style="stroke:none"
       id="path2985-7-0"
       sodipodi:cx="152"
       sodipodi:cy="151.36218"
       sodipodi:rx="10"
       sodipodi:ry="9"
       d="m 162,151.36218 a 10,9 0 1 1 -20,0 10,9 0 1 1 20,0 z"
       transform="matrix(1,0,0,1.0833333,178.76788,62.017446)" />
    <path
       sodipodi:type="arc"
       style="fill:none;stroke:#000000;stroke-width:1;stroke-miterlimit:4;stroke-opacity:1;stroke-dasharray:3, 1;stroke-dashoffset:0"
       id="path3755-7-9"
       sodipodi:cx="313.75"
       sodipodi:cy="266.61218"
       sodipodi:rx="91.75"
       sodipodi:ry="90.25"
       d="m 405.5,266.61218 a 91.75,90.25 0 1 1 -183.5,0 91.75,90.25 0 1 1 183.5,0 z"
       transform="matrix(0.77233799,0,0,0.77963452,87.196817,20.633086)" />
    <path
       transform="matrix(1.3116316,0,0,1.3195812,-82.006559,-123.07327)"
       sodipodi:type="arc"
       style="fill:none;stroke:#000000;stroke-width:1;stroke-miterlimit:4;stroke-opacity:1;stroke-dasharray:3, 1;stroke-dashoffset:0"
       id="path3755-2-0-2"
       sodipodi:cx="313.75"
       sodipodi:cy="266.61218"
       sodipodi:rx="91.75"
       sodipodi:ry="90.25"
       d="m 405.5,266.61218 a 91.75,90.25 0 1 1 -183.5,0 91.75,90.25 0 1 1 183.5,0 z" />
    <path
       sodipodi:type="arc"
       style="stroke:none"
       id="path2985-3-8-9"
       sodipodi:cx="152"
       sodipodi:cy="151.36218"
       sodipodi:rx="10"
       sodipodi:ry="9"
       d="m 162,151.36218 a 10,9 0 1 1 -20,0 10,9 0 1 1 20,0 z"
       transform="matrix(1,0,0,1.0833333,234.01787,62.517426)" />
    <path
       sodipodi:type="arc"
       style="fill:none;stroke:#000000;stroke-width:1;stroke-miterlimit:4;stroke-opacity:1;stroke-dasharray:3, 1;stroke-dashoffset:0"
       id="path3755-8-5-2"
       sodipodi:cx="313.75"
       sodipodi:cy="266.61218"
       sodipodi:rx="91.75"
       sodipodi:ry="90.25"
       d="m 405.5,266.61218 a 91.75,90.25 0 1 1 -183.5,0 91.75,90.25 0 1 1 183.5,0 z"
       transform="matrix(0.77233799,0,0,0.77963452,142.44685,21.133076)" />
    <path
       transform="matrix(1.3116316,0,0,1.3195812,-26.756553,-122.57328)"
       sodipodi:type="arc"
       style="fill:none;stroke:#000000;stroke-width:1;stroke-miterlimit:4;stroke-opacity:1;stroke-dasharray:3, 1;stroke-dashoffset:0"
       id="path3755-2-4-4-0"
       sodipodi:cx="313.75"
       sodipodi:cy="266.61218"
       sodipodi:rx="91.75"
       sodipodi:ry="90.25"
       d="m 405.5,266.61218 a 91.75,90.25 0 1 1 -183.5,0 91.75,90.25 0 1 1 183.5,0 z" />
    <path
       style="fill:none;stroke:#000000;stroke-width:0.75860137px;stroke-linecap:butt;stroke-linejoin:miter;stroke-opacity:1;marker-start:url(#Arrow1Lend);marker-end:url(#Arrow1Lstart)"
       d="m 348.38869,226.01239 19.50834,0"
       id="path3016"
       inkscape:connector-curvature="0" />
  </g>
</svg>
