<?xml version="1.0" encoding="UTF-8" standalone="no"?>
<!-- Created with Inkscape (http://www.inkscape.org/) -->

<svg
   xmlns:dc="http://purl.org/dc/elements/1.1/"
   xmlns:cc="http://creativecommons.org/ns#"
   xmlns:rdf="http://www.w3.org/1999/02/22-rdf-syntax-ns#"
   xmlns:svg="http://www.w3.org/2000/svg"
   xmlns="http://www.w3.org/2000/svg"
   xmlns:sodipodi="http://sodipodi.sourceforge.net/DTD/sodipodi-0.dtd"
   xmlns:inkscape="http://www.inkscape.org/namespaces/inkscape"
   width="744.09448819"
   height="1052.3622047"
   id="svg2"
   version="1.1"
   inkscape:version="0.48.4 r9939"
   sodipodi:docname="StableFormsCompressed.eps">
  <defs
     id="defs4" />
  <sodipodi:namedview
     id="base"
     pagecolor="#ffffff"
     bordercolor="#666666"
     borderopacity="1.0"
     inkscape:pageopacity="0.0"
     inkscape:pageshadow="2"
     inkscape:zoom="0.98994949"
     inkscape:cx="359.84771"
     inkscape:cy="681.62441"
     inkscape:document-units="px"
     inkscape:current-layer="layer1"
     showgrid="false"
     inkscape:window-width="1511"
     inkscape:window-height="1002"
     inkscape:window-x="49"
     inkscape:window-y="34"
     inkscape:window-maximized="0" />
  <metadata
     id="metadata7">
    <rdf:RDF>
      <cc:Work
         rdf:about="">
        <dc:format>image/svg+xml</dc:format>
        <dc:type
           rdf:resource="http://purl.org/dc/dcmitype/StillImage" />
        <dc:title></dc:title>
      </cc:Work>
    </rdf:RDF>
  </metadata>
  <g
     inkscape:label="Layer 1"
     inkscape:groupmode="layer"
     id="layer1">
    <path
       sodipodi:type="arc"
       style="fill:#322020;fill-opacity:1"
       id="path2985"
       sodipodi:cx="143.6942"
       sodipodi:cy="397.27826"
       sodipodi:rx="18.940361"
       sodipodi:ry="17.172594"
       d="m 162.63456,397.27826 a 18.940361,17.172594 0 1 1 -37.88072,0 18.940361,17.172594 0 1 1 37.88072,0 z"
       transform="matrix(0.57333335,0,0,0.64705884,100.62425,-37.51009)" />
    <path
       sodipodi:type="arc"
       style="fill:#322020;fill-opacity:1"
       id="path2985-3"
       sodipodi:cx="143.6942"
       sodipodi:cy="397.27826"
       sodipodi:rx="18.940361"
       sodipodi:ry="17.172594"
       d="m 162.63456,397.27826 a 18.940361,17.172594 0 1 1 -37.88072,0 18.940361,17.172594 0 1 1 37.88072,0 z"
       transform="matrix(0.57333335,0,0,0.64705884,127.72705,10.41124)" />
    <path
       sodipodi:type="arc"
       style="fill:#322020;fill-opacity:1"
       id="path2985-3-9"
       sodipodi:cx="143.6942"
       sodipodi:cy="397.27826"
       sodipodi:rx="18.940361"
       sodipodi:ry="17.172594"
       d="m 162.63456,397.27826 a 18.940361,17.172594 0 1 1 -37.88072,0 18.940361,17.172594 0 1 1 37.88072,0 z"
       transform="matrix(0.57333335,0,0,0.64705884,157.00117,-37.99486)" />
    <path
       sodipodi:type="arc"
       style="fill:#322020;fill-opacity:1"
       id="path2985-3-9-1"
       sodipodi:cx="143.6942"
       sodipodi:cy="397.27826"
       sodipodi:rx="18.940361"
       sodipodi:ry="17.172594"
       d="m 162.63456,397.27826 a 18.940361,17.172594 0 1 1 -37.88072,0 18.940361,17.172594 0 1 1 37.88072,0 z"
       transform="matrix(0.57333335,0,0,0.64705884,67.848888,9.4620101)" />
    <path
       sodipodi:type="arc"
       style="fill:#322020;fill-opacity:1"
       id="path2985-3-9-4"
       sodipodi:cx="143.6942"
       sodipodi:cy="397.27826"
       sodipodi:rx="18.940361"
       sodipodi:ry="17.172594"
       d="m 162.63456,397.27826 a 18.940361,17.172594 0 1 1 -37.88072,0 18.940361,17.172594 0 1 1 37.88072,0 z"
       transform="matrix(0.57333335,0,0,0.64705884,187.67124,9.7462801)" />
    <path
       sodipodi:type="arc"
       style="fill:#322020;fill-opacity:1"
       id="path2985-7"
       sodipodi:cx="143.6942"
       sodipodi:cy="397.27826"
       sodipodi:rx="18.940361"
       sodipodi:ry="17.172594"
       d="m 162.63456,397.27826 a 18.940361,17.172594 0 1 1 -37.88072,0 18.940361,17.172594 0 1 1 37.88072,0 z"
       transform="matrix(0.57333335,0,0,0.64705884,101.84827,57.39982)" />
    <path
       sodipodi:type="arc"
       style="fill:#322020;fill-opacity:1"
       id="path2985-3-9-49"
       sodipodi:cx="143.6942"
       sodipodi:cy="397.27826"
       sodipodi:rx="18.940361"
       sodipodi:ry="17.172594"
       d="m 162.63456,397.27826 a 18.940361,17.172594 0 1 1 -37.88072,0 18.940361,17.172594 0 1 1 37.88072,0 z"
       transform="matrix(0.57333335,0,0,0.64705884,158.22519,56.91505)" />
    <path
       style="fill:none;stroke:#000000;stroke-width:1px;stroke-linecap:butt;stroke-linejoin:miter;stroke-opacity:1"
       d="M 210.11173,267.47366 182.83761,217.97618"
       id="path3089"
       inkscape:connector-curvature="0" />
    <path
       style="fill:none;stroke:#000000;stroke-width:1px;stroke-linecap:butt;stroke-linejoin:miter;stroke-opacity:1"
       d="m 210.11173,267.47366 29.29442,-49.49748"
       id="path3091"
       inkscape:connector-curvature="0" />
    <path
       style="fill:none;stroke:#000000;stroke-width:1px;stroke-linecap:butt;stroke-linejoin:miter;stroke-opacity:1"
       d="m 210.11173,267.47366 -25.25381,46.46701"
       id="path3093"
       inkscape:connector-curvature="0" />
    <path
       style="fill:none;stroke:#000000;stroke-width:1px;stroke-linecap:butt;stroke-linejoin:miter;stroke-opacity:1"
       d="m 210.11173,266.4635 -59.599,-1.01015"
       id="path3095"
       inkscape:connector-curvature="0" />
    <path
       style="fill:none;stroke:#000000;stroke-width:1px;stroke-linecap:butt;stroke-linejoin:miter;stroke-opacity:1"
       d="m 210.11173,266.4635 58.58885,0"
       id="path3097"
       inkscape:connector-curvature="0" />
    <path
       style="fill:none;stroke:#000000;stroke-width:1px;stroke-linecap:butt;stroke-linejoin:miter;stroke-opacity:1"
       d="m 210.11173,266.4635 29.29442,46.46702"
       id="path3099"
       inkscape:connector-curvature="0" />
    <path
       style="fill:none;stroke:#000000;stroke-width:1px;stroke-linecap:butt;stroke-linejoin:miter;stroke-opacity:1"
       d="m 240.4163,216.96603 30.30458,50.50763"
       id="path3101"
       inkscape:connector-curvature="0" />
    <path
       style="fill:none;stroke:#000000;stroke-width:1px;stroke-linecap:butt;stroke-linejoin:miter;stroke-opacity:1"
       d="M 270.72088,267.47366 240.4163,314.95082"
       id="path3103"
       inkscape:connector-curvature="0" />
    <path
       style="fill:none;stroke:#000000;stroke-width:1px;stroke-linecap:butt;stroke-linejoin:miter;stroke-opacity:1"
       d="m 240.4163,314.95082 -55.55838,-1.01015"
       id="path3105"
       inkscape:connector-curvature="0" />
    <path
       style="fill:none;stroke:#000000;stroke-width:1px;stroke-linecap:butt;stroke-linejoin:miter;stroke-opacity:1"
       d="M 184.85792,313.94067 150.51273,265.45335"
       id="path3107"
       inkscape:connector-curvature="0" />
    <path
       style="fill:none;stroke:#000000;stroke-width:1px;stroke-linecap:butt;stroke-linejoin:miter;stroke-opacity:1"
       d="m 149.50258,266.4635 34.34518,-48.48732"
       id="path3109"
       inkscape:connector-curvature="0" />
    <path
       style="fill:none;stroke:#000000;stroke-width:1px;stroke-linecap:butt;stroke-linejoin:miter;stroke-opacity:1"
       d="M 183.84776,217.97618 238.396,216.96603"
       id="path3111"
       inkscape:connector-curvature="0" />
    <path
       sodipodi:type="arc"
       style="fill:#322020;fill-opacity:1"
       id="path2985-8"
       sodipodi:cx="143.6942"
       sodipodi:cy="397.27826"
       sodipodi:rx="18.940361"
       sodipodi:ry="17.172594"
       d="m 162.63456,397.27826 a 18.940361,17.172594 0 1 1 -37.88072,0 18.940361,17.172594 0 1 1 37.88072,0 z"
       transform="matrix(0.57333335,0,0,0.64705884,128.8755,-89.32925)" />
    <path
       sodipodi:type="arc"
       style="fill:#322020;fill-opacity:1"
       id="path2985-3-1"
       sodipodi:cx="143.6942"
       sodipodi:cy="397.27826"
       sodipodi:rx="18.940361"
       sodipodi:ry="17.172594"
       d="m 162.63456,397.27826 a 18.940361,17.172594 0 1 1 -37.88072,0 18.940361,17.172594 0 1 1 37.88072,0 z"
       transform="matrix(0.57333335,0,0,0.64705884,41.831065,66.678403)" />
    <path
       sodipodi:type="arc"
       style="fill:#322020;fill-opacity:1"
       id="path2985-3-9-3"
       sodipodi:cx="143.6942"
       sodipodi:cy="397.27826"
       sodipodi:rx="18.940361"
       sodipodi:ry="17.172594"
       d="m 162.63456,397.27826 a 18.940361,17.172594 0 1 1 -37.88072,0 18.940361,17.172594 0 1 1 37.88072,0 z"
       transform="matrix(0.57333335,0,0,0.64705884,35.749846,-45.367308)" />
    <path
       sodipodi:type="arc"
       style="fill:#322020;fill-opacity:1"
       id="path2985-3-9-1-9"
       sodipodi:cx="143.6942"
       sodipodi:cy="397.27826"
       sodipodi:rx="18.940361"
       sodipodi:ry="17.172594"
       d="m 162.63456,397.27826 a 18.940361,17.172594 0 1 1 -37.88072,0 18.940361,17.172594 0 1 1 37.88072,0 z"
       transform="matrix(0.57333335,0,0,0.64705884,218.3286,-40.336845)" />
    <path
       sodipodi:type="arc"
       style="fill:#322020;fill-opacity:1"
       id="path2985-30"
       sodipodi:cx="143.6942"
       sodipodi:cy="397.27826"
       sodipodi:rx="18.940361"
       sodipodi:ry="17.172594"
       d="m 162.63456,397.27826 a 18.940361,17.172594 0 1 1 -37.88072,0 18.940361,17.172594 0 1 1 37.88072,0 z"
       transform="matrix(0.57333335,0,0,0.64705884,133.92627,107.65049)" />
    <path
       sodipodi:type="arc"
       style="fill:#322020;fill-opacity:1"
       id="path2985-3-9-6"
       sodipodi:cx="143.6942"
       sodipodi:cy="397.27826"
       sodipodi:rx="18.940361"
       sodipodi:ry="17.172594"
       d="m 162.63456,397.27826 a 18.940361,17.172594 0 1 1 -37.88072,0 18.940361,17.172594 0 1 1 37.88072,0 z"
       transform="matrix(0.57333335,0,0,0.64705884,215.55701,63.729165)" />
    <path
       style="fill:none;stroke:#000000;stroke-width:1px;stroke-linecap:butt;stroke-linejoin:miter;stroke-opacity:1"
       d="m 211.12188,167.46855 0,101.01526"
       id="path4375"
       inkscape:connector-curvature="0" />
    <path
       style="fill:none;stroke:#000000;stroke-width:1px;stroke-linecap:butt;stroke-linejoin:miter;stroke-opacity:1"
       d="m 117.1777,210.90511 93.94418,57.5787"
       id="path4377"
       inkscape:connector-curvature="0" />
    <path
       style="fill:none;stroke:#000000;stroke-width:1px;stroke-linecap:butt;stroke-linejoin:miter;stroke-opacity:1"
       d="m 125.25892,323.03204 84.85281,-55.55839"
       id="path4379"
       inkscape:connector-curvature="0" />
    <path
       style="fill:none;stroke:#000000;stroke-width:1px;stroke-linecap:butt;stroke-linejoin:miter;stroke-opacity:1"
       d="M 217.1828,364.4483 212.13204,264.44319"
       id="path4381"
       inkscape:connector-curvature="0" />
    <path
       style="fill:none;stroke:#000000;stroke-width:1px;stroke-linecap:butt;stroke-linejoin:miter;stroke-opacity:1"
       d="M 299.00515,321.01174 C 288.90363,306.8696 212.13204,266.4635 212.13204,266.4635"
       id="path4383"
       inkscape:connector-curvature="0" />
    <path
       style="fill:none;stroke:#000000;stroke-width:1px;stroke-linecap:butt;stroke-linejoin:miter;stroke-opacity:1"
       d="m 301.02546,215.95587 -89.90358,51.51778"
       id="path4385"
       inkscape:connector-curvature="0" />
    <path
       style="fill:none;stroke:#000000;stroke-width:1px;stroke-linecap:butt;stroke-linejoin:miter;stroke-opacity:1"
       d="m 183.84776,219.99648 28.28428,-52.52793 c 6.06091,5.05076 27.27411,53.53809 27.27411,53.53809"
       id="path4387"
       inkscape:connector-curvature="0" />
    <path
       style="fill:none;stroke:#000000;stroke-width:1px;stroke-linecap:butt;stroke-linejoin:miter;stroke-opacity:1"
       d="m 300.01531,215.95587 -59.599,3.03046"
       id="path4389"
       inkscape:connector-curvature="0" />
    <path
       style="fill:none;stroke:#000000;stroke-width:1px;stroke-linecap:butt;stroke-linejoin:miter;stroke-opacity:1"
       d="m 270.72088,264.44319 30.30458,-49.49747"
       id="path4391"
       inkscape:connector-curvature="0" />
    <path
       style="fill:none;stroke:#000000;stroke-width:1px;stroke-linecap:butt;stroke-linejoin:miter;stroke-opacity:1"
       d="M 299.00515,320.00159 270.72088,266.4635"
       id="path4393"
       inkscape:connector-curvature="0" />
    <path
       style="fill:none;stroke:#000000;stroke-width:1px;stroke-linecap:butt;stroke-linejoin:miter;stroke-opacity:1"
       d="m 240.41631,313.94067 59.599,7.07107"
       id="path4395"
       inkscape:connector-curvature="0" />
    <path
       style="fill:none;stroke:#000000;stroke-width:1px;stroke-linecap:butt;stroke-linejoin:miter;stroke-opacity:1"
       d="m 126.26907,323.03204 57.57869,-10.10152"
       id="path4397"
       inkscape:connector-curvature="0" />
    <path
       style="fill:none;stroke:#000000;stroke-width:1px;stroke-linecap:butt;stroke-linejoin:miter;stroke-opacity:1"
       d="m 183.84776,312.93052 31.31473,49.49747 24.24366,-50.50763"
       id="path4399"
       inkscape:connector-curvature="0" />
    <path
       style="fill:none;stroke:#000000;stroke-width:1px;stroke-linecap:butt;stroke-linejoin:miter;stroke-opacity:1"
       d="m 126.26907,324.0422 23.23351,-56.56855 -32.32488,-56.56854 66.67006,9.09137"
       id="path4401"
       inkscape:connector-curvature="0" />
  </g>
</svg>
